# xmcd
#
# Track frame offsets:
# 150
# 16453
# 29922
# 47062
# 62124
# 75890
# 93246
# 107633
# 127230
# 136515
# 147852
# 161267
# 183104
# 200487
#
# Disc length: 2888 seconds
#
#
# Revision: 0
# Processed by: cddbd v1.5.1PL0 Copyright (c) Steve Scherf et al.
# Submitted via: FreeRIP 2.91 
#
DISCID=b50b460e
DTITLE=milionário e josé rico - os grandes sucessos - vol. 17
DYEAR=2004
DGENRE=Country
TTITLE0=sonho de um caminhoneiro
TTITLE1=de longe também se ama
TTITLE2=meu mundo vazio (sereia)
TTITLE3=jogo de amor
TTITLE4=apaixonado
TTITLE5=tribunal do amor
TTITLE6=paixão de um homem
TTITLE7=sonhei com você
TTITLE8=estrada da vida
TTITLE9=tropeiro (el bandolero)
TTITLE10=dê amor para quem te ama
TTITLE11=lembranças
TTITLE12=praia deserta
TTITLE13=viva a vida
EXTD=Informações adicionadas por danielsan.
EXTT0=
EXTT1=
EXTT2=
EXTT3=
EXTT4=
EXTT5=
EXTT6=
EXTT7=
EXTT8=
EXTT9=
EXTT10=
EXTT11=
EXTT12=
EXTT13=
PLAYORDER=
